<mxfile host="Electron" modified="2024-04-16T07:10:28.110Z" agent="Mozilla/5.0 (Windows NT 10.0; Win64; x64) AppleWebKit/537.36 (KHTML, like Gecko) draw.io/23.1.5 Chrome/120.0.6099.109 Electron/28.1.0 Safari/537.36" etag="PbpvdTbYlANwkH87oYAW" version="23.1.5" type="device">
  <diagram name="Page-1" id="vJp2piSBo7w1ZP9N7CSG">
    <mxGraphModel dx="2398" dy="1553" grid="1" gridSize="10" guides="1" tooltips="1" connect="1" arrows="1" fold="1" page="1" pageScale="1" pageWidth="827" pageHeight="1169" math="0" shadow="0">
      <root>
        <mxCell id="0" />
        <mxCell id="1" parent="0" />
        <object placeholders="1" c4Name="Hệ thống quản lý nguyên liệu" c4Type="SystemScopeBoundary" c4Application="Software System" label="&lt;font style=&quot;font-size: 16px&quot;&gt;&lt;b&gt;&lt;div style=&quot;text-align: left&quot;&gt;%c4Name%&lt;/div&gt;&lt;/b&gt;&lt;/font&gt;&lt;div style=&quot;text-align: left&quot;&gt;[%c4Application%]&lt;/div&gt;" id="LB-7-wC-m8ZPdhusKRaJ-1">
          <mxCell style="rounded=1;fontSize=11;whiteSpace=wrap;html=1;dashed=1;arcSize=20;fillColor=none;strokeColor=#666666;fontColor=#333333;labelBackgroundColor=none;align=left;verticalAlign=bottom;labelBorderColor=none;spacingTop=0;spacing=10;dashPattern=8 4;metaEdit=1;rotatable=0;perimeter=rectanglePerimeter;noLabel=0;labelPadding=0;allowArrows=0;connectable=0;expand=0;recursiveResize=0;editable=1;pointerEvents=0;absoluteArcSize=1;points=[[0.25,0,0],[0.5,0,0],[0.75,0,0],[1,0.25,0],[1,0.5,0],[1,0.75,0],[0.75,1,0],[0.5,1,0],[0.25,1,0],[0,0.75,0],[0,0.5,0],[0,0.25,0]];" parent="1" vertex="1">
            <mxGeometry x="830" y="10" width="744" height="1150" as="geometry" />
          </mxCell>
        </object>
        <mxCell id="KORaT0S3K6uB-MI05ZFw-1" value="Đăng nhập hệ thống&amp;nbsp;" style="ellipse;whiteSpace=wrap;html=1;fillColor=#f8cecc;strokeColor=#b85450;" parent="1" vertex="1">
          <mxGeometry x="1363.43" y="428.5" width="120" height="80" as="geometry" />
        </mxCell>
        <mxCell id="KORaT0S3K6uB-MI05ZFw-2" value="Quản lý nhập nguyên vật liệu&amp;nbsp;" style="ellipse;whiteSpace=wrap;html=1;fillColor=#dae8fc;strokeColor=#6c8ebf;" parent="1" vertex="1">
          <mxGeometry x="1141" y="310" width="100" height="60" as="geometry" />
        </mxCell>
        <mxCell id="KORaT0S3K6uB-MI05ZFw-7" value="Tạo phiếu nhập kho" style="ellipse;whiteSpace=wrap;html=1;fillColor=#e1d5e7;strokeColor=#9673a6;" parent="1" vertex="1">
          <mxGeometry x="950.0000000000001" y="270" width="100" height="60" as="geometry" />
        </mxCell>
        <mxCell id="KORaT0S3K6uB-MI05ZFw-13" value="Cập nhật số lượng hàng tồn" style="ellipse;whiteSpace=wrap;html=1;fillColor=#e1d5e7;strokeColor=#9673a6;" parent="1" vertex="1">
          <mxGeometry x="1070" y="158.5" width="100" height="60" as="geometry" />
        </mxCell>
        <mxCell id="KORaT0S3K6uB-MI05ZFw-26" value="Quản lý nguyên liệu trong kho&amp;nbsp;" style="ellipse;whiteSpace=wrap;html=1;fillColor=#dae8fc;strokeColor=#6c8ebf;" parent="1" vertex="1">
          <mxGeometry x="1147.1499999999999" y="890" width="100" height="60" as="geometry" />
        </mxCell>
        <mxCell id="KORaT0S3K6uB-MI05ZFw-27" value="Phân loại hàng hóa" style="ellipse;whiteSpace=wrap;html=1;fillColor=#e1d5e7;strokeColor=#9673a6;" parent="1" vertex="1">
          <mxGeometry x="990.7500000000001" y="915" width="100" height="60" as="geometry" />
        </mxCell>
        <mxCell id="KORaT0S3K6uB-MI05ZFw-28" value="Theo dõi tồn kho theo từng lô hàng" style="ellipse;whiteSpace=wrap;html=1;fillColor=#e1d5e7;strokeColor=#9673a6;" parent="1" vertex="1">
          <mxGeometry x="990.7500000000001" y="1025" width="100" height="60" as="geometry" />
        </mxCell>
        <mxCell id="KORaT0S3K6uB-MI05ZFw-30" value="Tùy chỉnh thông tin hàng hóa" style="ellipse;whiteSpace=wrap;html=1;fillColor=#e1d5e7;strokeColor=#9673a6;" parent="1" vertex="1">
          <mxGeometry x="990.7500000000001" y="820" width="100" height="60" as="geometry" />
        </mxCell>
        <mxCell id="KORaT0S3K6uB-MI05ZFw-36" value="In phiếu nhập kho" style="ellipse;whiteSpace=wrap;html=1;fillColor=#e1d5e7;strokeColor=#9673a6;" parent="1" vertex="1">
          <mxGeometry x="950.0000000000001" y="360" width="100" height="60" as="geometry" />
        </mxCell>
        <mxCell id="KORaT0S3K6uB-MI05ZFw-43" value="&amp;lt;&amp;lt;include&amp;gt;&amp;gt;" style="html=1;verticalAlign=bottom;labelBackgroundColor=none;endArrow=open;endFill=0;dashed=1;rounded=0;exitX=1;exitY=1;exitDx=0;exitDy=0;entryX=0.5;entryY=0;entryDx=0;entryDy=0;" parent="1" source="KORaT0S3K6uB-MI05ZFw-83" target="KORaT0S3K6uB-MI05ZFw-1" edge="1">
          <mxGeometry width="160" relative="1" as="geometry">
            <mxPoint x="1457.79" y="198.5" as="sourcePoint" />
            <mxPoint x="1492.93" y="378.5" as="targetPoint" />
          </mxGeometry>
        </mxCell>
        <mxCell id="KORaT0S3K6uB-MI05ZFw-44" value="&amp;lt;&amp;lt;include&amp;gt;&amp;gt;" style="html=1;verticalAlign=bottom;labelBackgroundColor=none;endArrow=open;endFill=0;dashed=1;rounded=0;exitX=1;exitY=0;exitDx=0;exitDy=0;entryX=0;entryY=1;entryDx=0;entryDy=0;" parent="1" source="KORaT0S3K6uB-MI05ZFw-26" target="KORaT0S3K6uB-MI05ZFw-1" edge="1">
          <mxGeometry width="160" relative="1" as="geometry">
            <mxPoint x="1647.93" y="195" as="sourcePoint" />
            <mxPoint x="1852.93" y="565" as="targetPoint" />
          </mxGeometry>
        </mxCell>
        <mxCell id="KORaT0S3K6uB-MI05ZFw-45" value="&amp;lt;&amp;lt;extend&amp;gt;&amp;gt;" style="html=1;verticalAlign=bottom;labelBackgroundColor=none;endArrow=open;endFill=0;dashed=1;rounded=0;entryX=0;entryY=0;entryDx=0;entryDy=0;exitX=1;exitY=0.5;exitDx=0;exitDy=0;" parent="1" source="KORaT0S3K6uB-MI05ZFw-30" target="KORaT0S3K6uB-MI05ZFw-26" edge="1">
          <mxGeometry x="-0.0721" y="1" width="160" relative="1" as="geometry">
            <mxPoint x="1126.61" y="855" as="sourcePoint" />
            <mxPoint x="1191.61" y="885" as="targetPoint" />
            <mxPoint as="offset" />
          </mxGeometry>
        </mxCell>
        <mxCell id="KORaT0S3K6uB-MI05ZFw-46" value="&amp;lt;&amp;lt;extend&amp;gt;&amp;gt;" style="html=1;verticalAlign=bottom;labelBackgroundColor=none;endArrow=open;endFill=0;dashed=1;rounded=0;entryX=0;entryY=1;entryDx=0;entryDy=0;exitX=1;exitY=0.5;exitDx=0;exitDy=0;" parent="1" source="KORaT0S3K6uB-MI05ZFw-27" target="KORaT0S3K6uB-MI05ZFw-26" edge="1">
          <mxGeometry x="-0.0433" y="-16" width="160" relative="1" as="geometry">
            <mxPoint x="1166.11" y="1060" as="sourcePoint" />
            <mxPoint x="1209.11" y="1139" as="targetPoint" />
            <mxPoint as="offset" />
          </mxGeometry>
        </mxCell>
        <mxCell id="KORaT0S3K6uB-MI05ZFw-47" value="&amp;lt;&amp;lt;extend&amp;gt;&amp;gt;" style="html=1;verticalAlign=bottom;labelBackgroundColor=none;endArrow=open;endFill=0;dashed=1;rounded=0;entryX=0.5;entryY=1;entryDx=0;entryDy=0;exitX=1;exitY=0.5;exitDx=0;exitDy=0;" parent="1" source="KORaT0S3K6uB-MI05ZFw-28" target="KORaT0S3K6uB-MI05ZFw-26" edge="1">
          <mxGeometry x="-0.0721" y="1" width="160" relative="1" as="geometry">
            <mxPoint x="1109.11" y="1230" as="sourcePoint" />
            <mxPoint x="1152.11" y="1309" as="targetPoint" />
            <mxPoint as="offset" />
          </mxGeometry>
        </mxCell>
        <mxCell id="KORaT0S3K6uB-MI05ZFw-56" value="&amp;lt;&amp;lt;include&amp;gt;&amp;gt;" style="html=1;verticalAlign=bottom;labelBackgroundColor=none;endArrow=open;endFill=0;dashed=1;rounded=0;exitX=1;exitY=1;exitDx=0;exitDy=0;entryX=0.317;entryY=0.038;entryDx=0;entryDy=0;entryPerimeter=0;" parent="1" source="KORaT0S3K6uB-MI05ZFw-2" target="KORaT0S3K6uB-MI05ZFw-1" edge="1">
          <mxGeometry width="160" relative="1" as="geometry">
            <mxPoint x="1637.93" y="188.5" as="sourcePoint" />
            <mxPoint x="1792.93" y="418.5" as="targetPoint" />
          </mxGeometry>
        </mxCell>
        <mxCell id="KORaT0S3K6uB-MI05ZFw-57" value="&amp;lt;&amp;lt;extend&amp;gt;&amp;gt;" style="html=1;verticalAlign=bottom;labelBackgroundColor=none;endArrow=open;endFill=0;dashed=1;rounded=0;entryX=0;entryY=0.5;entryDx=0;entryDy=0;exitX=1;exitY=1;exitDx=0;exitDy=0;" parent="1" source="KORaT0S3K6uB-MI05ZFw-7" target="KORaT0S3K6uB-MI05ZFw-2" edge="1">
          <mxGeometry x="-0.0721" y="1" width="160" relative="1" as="geometry">
            <mxPoint x="1131.93" y="243.5" as="sourcePoint" />
            <mxPoint x="1232.93" y="363.5" as="targetPoint" />
            <mxPoint as="offset" />
          </mxGeometry>
        </mxCell>
        <mxCell id="KORaT0S3K6uB-MI05ZFw-58" value="&amp;lt;&amp;lt;extend&amp;gt;&amp;gt;" style="html=1;verticalAlign=bottom;labelBackgroundColor=none;endArrow=open;endFill=0;dashed=1;rounded=0;exitX=0.5;exitY=1;exitDx=0;exitDy=0;entryX=0.5;entryY=0;entryDx=0;entryDy=0;" parent="1" source="KORaT0S3K6uB-MI05ZFw-13" target="KORaT0S3K6uB-MI05ZFw-2" edge="1">
          <mxGeometry x="-0.0721" y="1" width="160" relative="1" as="geometry">
            <mxPoint x="1141.93" y="253.5" as="sourcePoint" />
            <mxPoint x="1260" y="293.5" as="targetPoint" />
            <mxPoint as="offset" />
          </mxGeometry>
        </mxCell>
        <mxCell id="KORaT0S3K6uB-MI05ZFw-59" value="&amp;lt;&amp;lt;extend&amp;gt;&amp;gt;" style="html=1;verticalAlign=bottom;labelBackgroundColor=none;endArrow=open;endFill=0;dashed=1;rounded=0;entryX=0;entryY=1;entryDx=0;entryDy=0;exitX=1;exitY=0.5;exitDx=0;exitDy=0;" parent="1" source="KORaT0S3K6uB-MI05ZFw-36" target="KORaT0S3K6uB-MI05ZFw-2" edge="1">
          <mxGeometry x="-0.0721" y="1" width="160" relative="1" as="geometry">
            <mxPoint x="1142.93" y="398.5" as="sourcePoint" />
            <mxPoint x="1229.93" y="412.5" as="targetPoint" />
            <mxPoint as="offset" />
          </mxGeometry>
        </mxCell>
        <mxCell id="KORaT0S3K6uB-MI05ZFw-67" value="Lấy lại mật khẩu" style="ellipse;whiteSpace=wrap;html=1;fillColor=#d5e8d4;strokeColor=#82b366;" parent="1" vertex="1">
          <mxGeometry x="1470" y="620" width="100" height="60" as="geometry" />
        </mxCell>
        <mxCell id="KORaT0S3K6uB-MI05ZFw-68" value="&amp;lt;&amp;lt;extend&amp;gt;&amp;gt;" style="html=1;verticalAlign=bottom;labelBackgroundColor=none;endArrow=open;endFill=0;dashed=1;rounded=0;entryX=1;entryY=0.5;entryDx=0;entryDy=0;exitX=0.5;exitY=0;exitDx=0;exitDy=0;" parent="1" source="KORaT0S3K6uB-MI05ZFw-67" target="KORaT0S3K6uB-MI05ZFw-1" edge="1">
          <mxGeometry x="-0.0721" y="1" width="160" relative="1" as="geometry">
            <mxPoint x="1831.4600000000003" y="1065" as="sourcePoint" />
            <mxPoint x="1660.9600000000003" y="835" as="targetPoint" />
            <mxPoint as="offset" />
          </mxGeometry>
        </mxCell>
        <mxCell id="KORaT0S3K6uB-MI05ZFw-71" value="Đăng xuất" style="ellipse;whiteSpace=wrap;html=1;fillColor=#d5e8d4;strokeColor=#82b366;" parent="1" vertex="1">
          <mxGeometry x="1360.0000000000002" y="670" width="100" height="60" as="geometry" />
        </mxCell>
        <mxCell id="KORaT0S3K6uB-MI05ZFw-72" value="&amp;lt;&amp;lt;include&amp;gt;&amp;gt;" style="html=1;verticalAlign=bottom;labelBackgroundColor=none;endArrow=open;endFill=0;dashed=1;rounded=0;exitX=0.5;exitY=0;exitDx=0;exitDy=0;entryX=0.5;entryY=1;entryDx=0;entryDy=0;" parent="1" source="KORaT0S3K6uB-MI05ZFw-71" target="KORaT0S3K6uB-MI05ZFw-1" edge="1">
          <mxGeometry width="160" relative="1" as="geometry">
            <mxPoint x="1620.9600000000003" y="885" as="sourcePoint" />
            <mxPoint x="1442.93" y="545" as="targetPoint" />
          </mxGeometry>
        </mxCell>
        <mxCell id="KORaT0S3K6uB-MI05ZFw-73" value="&amp;lt;&amp;lt;include&amp;gt;&amp;gt;" style="html=1;verticalAlign=bottom;labelBackgroundColor=none;endArrow=open;endFill=0;dashed=1;rounded=0;exitX=1;exitY=0;exitDx=0;exitDy=0;entryX=0;entryY=0.5;entryDx=0;entryDy=0;" parent="1" source="KORaT0S3K6uB-MI05ZFw-94" target="KORaT0S3K6uB-MI05ZFw-1" edge="1">
          <mxGeometry width="160" relative="1" as="geometry">
            <mxPoint x="1280.5000000000039" y="640" as="sourcePoint" />
            <mxPoint x="1443.93" y="525" as="targetPoint" />
          </mxGeometry>
        </mxCell>
        <mxCell id="KORaT0S3K6uB-MI05ZFw-79" value="Nhân viên" style="shape=umlActor;verticalLabelPosition=bottom;verticalAlign=top;html=1;" parent="1" vertex="1">
          <mxGeometry x="1595.36" y="438.5" width="40" height="70" as="geometry" />
        </mxCell>
        <mxCell id="KORaT0S3K6uB-MI05ZFw-81" value="Quản lý" style="shape=umlActor;verticalLabelPosition=bottom;verticalAlign=top;html=1;" parent="1" vertex="1">
          <mxGeometry x="1595.36" y="880" width="40" height="70" as="geometry" />
        </mxCell>
        <mxCell id="KORaT0S3K6uB-MI05ZFw-82" value="" style="endArrow=block;endSize=16;endFill=0;html=1;rounded=0;exitX=0.5;exitY=0;exitDx=0;exitDy=0;exitPerimeter=0;" parent="1" source="KORaT0S3K6uB-MI05ZFw-81" target="KORaT0S3K6uB-MI05ZFw-79" edge="1">
          <mxGeometry width="160" relative="1" as="geometry">
            <mxPoint x="1780" y="680" as="sourcePoint" />
            <mxPoint x="1940" y="680" as="targetPoint" />
          </mxGeometry>
        </mxCell>
        <mxCell id="KORaT0S3K6uB-MI05ZFw-83" value="Quản lý xuất nguyên vật liệu&amp;nbsp;" style="ellipse;whiteSpace=wrap;html=1;fillColor=#dae8fc;strokeColor=#6c8ebf;" parent="1" vertex="1">
          <mxGeometry x="1309.9999999999998" y="120" width="100" height="60" as="geometry" />
        </mxCell>
        <mxCell id="KORaT0S3K6uB-MI05ZFw-84" value="Tạo phiếu xuất kho" style="ellipse;whiteSpace=wrap;html=1;fillColor=#e1d5e7;strokeColor=#9673a6;" parent="1" vertex="1">
          <mxGeometry x="1159.9999999999998" y="40" width="100" height="60" as="geometry" />
        </mxCell>
        <mxCell id="KORaT0S3K6uB-MI05ZFw-88" value="In phiếu xuất kho" style="ellipse;whiteSpace=wrap;html=1;fillColor=#e1d5e7;strokeColor=#9673a6;" parent="1" vertex="1">
          <mxGeometry x="1209.9999999999998" y="190" width="100" height="60" as="geometry" />
        </mxCell>
        <mxCell id="KORaT0S3K6uB-MI05ZFw-89" value="&amp;lt;&amp;lt;extend&amp;gt;&amp;gt;" style="html=1;verticalAlign=bottom;labelBackgroundColor=none;endArrow=open;endFill=0;dashed=1;rounded=0;entryX=0;entryY=0;entryDx=0;entryDy=0;exitX=1;exitY=0.5;exitDx=0;exitDy=0;" parent="1" source="KORaT0S3K6uB-MI05ZFw-84" target="KORaT0S3K6uB-MI05ZFw-83" edge="1">
          <mxGeometry x="0.1285" y="-7" width="160" relative="1" as="geometry">
            <mxPoint x="1410.4999999999998" y="-21.5" as="sourcePoint" />
            <mxPoint x="1532.4999999999998" y="-46.5" as="targetPoint" />
            <mxPoint as="offset" />
          </mxGeometry>
        </mxCell>
        <mxCell id="KORaT0S3K6uB-MI05ZFw-90" value="&amp;lt;&amp;lt;extend&amp;gt;&amp;gt;" style="html=1;verticalAlign=bottom;labelBackgroundColor=none;endArrow=open;endFill=0;dashed=1;rounded=0;entryX=0;entryY=0.5;entryDx=0;entryDy=0;exitX=1;exitY=0;exitDx=0;exitDy=0;" parent="1" source="KORaT0S3K6uB-MI05ZFw-13" target="KORaT0S3K6uB-MI05ZFw-83" edge="1">
          <mxGeometry x="-0.5159" y="9" width="160" relative="1" as="geometry">
            <mxPoint x="1370.499999999996" y="153.5" as="sourcePoint" />
            <mxPoint x="1425.4999999999998" y="117.5" as="targetPoint" />
            <mxPoint as="offset" />
          </mxGeometry>
        </mxCell>
        <mxCell id="KORaT0S3K6uB-MI05ZFw-91" value="&amp;lt;&amp;lt;extend&amp;gt;&amp;gt;" style="html=1;verticalAlign=bottom;labelBackgroundColor=none;endArrow=open;endFill=0;dashed=1;rounded=0;entryX=0.5;entryY=1;entryDx=0;entryDy=0;exitX=1;exitY=0.5;exitDx=0;exitDy=0;" parent="1" source="KORaT0S3K6uB-MI05ZFw-88" target="KORaT0S3K6uB-MI05ZFw-83" edge="1">
          <mxGeometry x="0.1285" y="-7" width="160" relative="1" as="geometry">
            <mxPoint x="1380.4999999999998" y="73.5" as="sourcePoint" />
            <mxPoint x="1425.4999999999998" y="117.5" as="targetPoint" />
            <mxPoint as="offset" />
            <Array as="points" />
          </mxGeometry>
        </mxCell>
        <mxCell id="KORaT0S3K6uB-MI05ZFw-94" value="Quản lý tình hình kho" style="ellipse;whiteSpace=wrap;html=1;fillColor=#dae8fc;strokeColor=#6c8ebf;" parent="1" vertex="1">
          <mxGeometry x="1131" y="645" width="100" height="60" as="geometry" />
        </mxCell>
        <mxCell id="KORaT0S3K6uB-MI05ZFw-95" value="Báo cáo tồn kho theo từng loại hàng" style="ellipse;whiteSpace=wrap;html=1;fillColor=#e1d5e7;strokeColor=#9673a6;" parent="1" vertex="1">
          <mxGeometry x="900.0000000000001" y="490" width="112.64" height="60" as="geometry" />
        </mxCell>
        <mxCell id="KORaT0S3K6uB-MI05ZFw-96" value="Báo cáo nhập xuất kho theo thời gian" style="ellipse;whiteSpace=wrap;html=1;fillColor=#e1d5e7;strokeColor=#9673a6;" parent="1" vertex="1">
          <mxGeometry x="900.0000000000001" y="565" width="112.64" height="60" as="geometry" />
        </mxCell>
        <mxCell id="KORaT0S3K6uB-MI05ZFw-97" value="Báo cáo thống kê giá trị hàng nhập kho" style="ellipse;whiteSpace=wrap;html=1;fillColor=#e1d5e7;strokeColor=#9673a6;" parent="1" vertex="1">
          <mxGeometry x="900.0000000000001" y="645" width="112.64" height="60" as="geometry" />
        </mxCell>
        <mxCell id="KORaT0S3K6uB-MI05ZFw-98" value="Nhận cảnh báo về nguyên liệu" style="ellipse;whiteSpace=wrap;html=1;fillColor=#e1d5e7;strokeColor=#9673a6;" parent="1" vertex="1">
          <mxGeometry x="900.0000000000001" y="715" width="112.64" height="60" as="geometry" />
        </mxCell>
        <mxCell id="KORaT0S3K6uB-MI05ZFw-99" value="&amp;lt;&amp;lt;extend&amp;gt;&amp;gt;" style="html=1;verticalAlign=bottom;labelBackgroundColor=none;endArrow=open;endFill=0;dashed=1;rounded=0;entryX=0.5;entryY=0;entryDx=0;entryDy=0;exitX=1;exitY=0.5;exitDx=0;exitDy=0;" parent="1" source="KORaT0S3K6uB-MI05ZFw-95" target="KORaT0S3K6uB-MI05ZFw-94" edge="1">
          <mxGeometry x="-0.0721" y="1" width="160" relative="1" as="geometry">
            <mxPoint x="1097.7500000000002" y="560" as="sourcePoint" />
            <mxPoint x="1162.7500000000002" y="590" as="targetPoint" />
            <mxPoint as="offset" />
          </mxGeometry>
        </mxCell>
        <mxCell id="KORaT0S3K6uB-MI05ZFw-100" value="&amp;lt;&amp;lt;extend&amp;gt;&amp;gt;" style="html=1;verticalAlign=bottom;labelBackgroundColor=none;endArrow=open;endFill=0;dashed=1;rounded=0;entryX=0;entryY=0;entryDx=0;entryDy=0;exitX=1;exitY=0.5;exitDx=0;exitDy=0;" parent="1" source="KORaT0S3K6uB-MI05ZFw-96" target="KORaT0S3K6uB-MI05ZFw-94" edge="1">
          <mxGeometry x="-0.0721" y="1" width="160" relative="1" as="geometry">
            <mxPoint x="1084.2500000000002" y="520" as="sourcePoint" />
            <mxPoint x="1185.2500000000002" y="640" as="targetPoint" />
            <mxPoint as="offset" />
          </mxGeometry>
        </mxCell>
        <mxCell id="KORaT0S3K6uB-MI05ZFw-101" value="&amp;lt;&amp;lt;extend&amp;gt;&amp;gt;" style="html=1;verticalAlign=bottom;labelBackgroundColor=none;endArrow=open;endFill=0;dashed=1;rounded=0;entryX=0;entryY=1;entryDx=0;entryDy=0;exitX=1;exitY=0.5;exitDx=0;exitDy=0;" parent="1" source="KORaT0S3K6uB-MI05ZFw-97" target="KORaT0S3K6uB-MI05ZFw-94" edge="1">
          <mxGeometry x="-0.0721" y="1" width="160" relative="1" as="geometry">
            <mxPoint x="1094.2500000000002" y="530" as="sourcePoint" />
            <mxPoint x="1195.2500000000002" y="650" as="targetPoint" />
            <mxPoint as="offset" />
          </mxGeometry>
        </mxCell>
        <mxCell id="KORaT0S3K6uB-MI05ZFw-102" value="&amp;lt;&amp;lt;extend&amp;gt;&amp;gt;" style="html=1;verticalAlign=bottom;labelBackgroundColor=none;endArrow=open;endFill=0;dashed=1;rounded=0;entryX=0.5;entryY=1;entryDx=0;entryDy=0;exitX=1;exitY=0.5;exitDx=0;exitDy=0;" parent="1" source="KORaT0S3K6uB-MI05ZFw-98" target="KORaT0S3K6uB-MI05ZFw-94" edge="1">
          <mxGeometry x="-0.0721" y="1" width="160" relative="1" as="geometry">
            <mxPoint x="1104.2500000000002" y="540" as="sourcePoint" />
            <mxPoint x="1205.2500000000002" y="660" as="targetPoint" />
            <mxPoint as="offset" />
          </mxGeometry>
        </mxCell>
        <mxCell id="KORaT0S3K6uB-MI05ZFw-103" value="" style="endArrow=none;html=1;rounded=0;exitX=0;exitY=0.3333333333333333;exitDx=0;exitDy=0;exitPerimeter=0;entryX=1;entryY=0.5;entryDx=0;entryDy=0;" parent="1" source="KORaT0S3K6uB-MI05ZFw-79" target="KORaT0S3K6uB-MI05ZFw-83" edge="1">
          <mxGeometry width="50" height="50" relative="1" as="geometry">
            <mxPoint x="1640" y="300" as="sourcePoint" />
            <mxPoint x="1690" y="250" as="targetPoint" />
          </mxGeometry>
        </mxCell>
        <mxCell id="KORaT0S3K6uB-MI05ZFw-104" value="" style="endArrow=none;html=1;rounded=0;entryX=1;entryY=0.5;entryDx=0;entryDy=0;exitX=0;exitY=0.3333333333333333;exitDx=0;exitDy=0;exitPerimeter=0;" parent="1" source="KORaT0S3K6uB-MI05ZFw-79" target="KORaT0S3K6uB-MI05ZFw-2" edge="1">
          <mxGeometry width="50" height="50" relative="1" as="geometry">
            <mxPoint x="1590" y="460" as="sourcePoint" />
            <mxPoint x="1521" y="145" as="targetPoint" />
          </mxGeometry>
        </mxCell>
        <mxCell id="KORaT0S3K6uB-MI05ZFw-105" value="" style="endArrow=none;html=1;rounded=0;exitX=0;exitY=0.3333333333333333;exitDx=0;exitDy=0;exitPerimeter=0;entryX=1;entryY=0.5;entryDx=0;entryDy=0;" parent="1" source="KORaT0S3K6uB-MI05ZFw-81" target="KORaT0S3K6uB-MI05ZFw-94" edge="1">
          <mxGeometry width="50" height="50" relative="1" as="geometry">
            <mxPoint x="1587.86" y="893.5" as="sourcePoint" />
            <mxPoint x="1502.86" y="566.5" as="targetPoint" />
          </mxGeometry>
        </mxCell>
        <mxCell id="KORaT0S3K6uB-MI05ZFw-106" value="" style="endArrow=none;html=1;rounded=0;exitX=0;exitY=0.3333333333333333;exitDx=0;exitDy=0;exitPerimeter=0;entryX=1;entryY=0.5;entryDx=0;entryDy=0;" parent="1" source="KORaT0S3K6uB-MI05ZFw-81" target="KORaT0S3K6uB-MI05ZFw-26" edge="1">
          <mxGeometry width="50" height="50" relative="1" as="geometry">
            <mxPoint x="1605" y="825" as="sourcePoint" />
            <mxPoint x="1253" y="670" as="targetPoint" />
          </mxGeometry>
        </mxCell>
        <mxCell id="dkrSboafwAIlYk0rzjUt-1" value="Chỉnh sửa thông tin hàng hóa" style="ellipse;whiteSpace=wrap;html=1;fillColor=#fff2cc;strokeColor=#d6b656;" vertex="1" parent="1">
          <mxGeometry x="850" y="800" width="100" height="60" as="geometry" />
        </mxCell>
        <mxCell id="dkrSboafwAIlYk0rzjUt-2" value="Xóa thông tin hàng hóa" style="ellipse;whiteSpace=wrap;html=1;fillColor=#fff2cc;strokeColor=#d6b656;" vertex="1" parent="1">
          <mxGeometry x="860" y="870" width="100" height="60" as="geometry" />
        </mxCell>
        <mxCell id="dkrSboafwAIlYk0rzjUt-3" value="&amp;lt;&amp;lt;extend&amp;gt;&amp;gt;" style="html=1;verticalAlign=bottom;labelBackgroundColor=none;endArrow=open;endFill=0;dashed=1;rounded=0;entryX=0;entryY=0.5;entryDx=0;entryDy=0;exitX=1;exitY=0.5;exitDx=0;exitDy=0;" edge="1" parent="1" source="dkrSboafwAIlYk0rzjUt-1" target="KORaT0S3K6uB-MI05ZFw-30">
          <mxGeometry x="0.3807" y="4" width="160" relative="1" as="geometry">
            <mxPoint x="1101" y="860" as="sourcePoint" />
            <mxPoint x="1172" y="909" as="targetPoint" />
            <mxPoint as="offset" />
          </mxGeometry>
        </mxCell>
        <mxCell id="dkrSboafwAIlYk0rzjUt-4" value="&amp;lt;&amp;lt;extend&amp;gt;&amp;gt;" style="html=1;verticalAlign=bottom;labelBackgroundColor=none;endArrow=open;endFill=0;dashed=1;rounded=0;entryX=0.5;entryY=1;entryDx=0;entryDy=0;exitX=1;exitY=0.5;exitDx=0;exitDy=0;" edge="1" parent="1" source="dkrSboafwAIlYk0rzjUt-2" target="KORaT0S3K6uB-MI05ZFw-30">
          <mxGeometry x="-0.0665" y="-10" width="160" relative="1" as="geometry">
            <mxPoint x="960" y="840" as="sourcePoint" />
            <mxPoint x="1001" y="860" as="targetPoint" />
            <mxPoint as="offset" />
          </mxGeometry>
        </mxCell>
      </root>
    </mxGraphModel>
  </diagram>
</mxfile>
